<svg width="901" height="239" xmlns="http://www.w3.org/2000/svg"><g fill="none" fill-rule="evenodd"><path d="M320.159 104.197c.938-5.166 1.409-9.868 1.409-14.1 0-12.334-3.642-21.498-10.966-27.57-7.284-6.066-18.291-9.084-32.974-9.084-11.555 0-21.892 1.96-30.979 5.876-9.123 3.916-16.642 9.829-22.594 17.7-5.992 7.871-10.03 17.7-12.219 29.529-.472 2.428-.942 4.855-1.411 7.285a148.405 148.405 0 0 0-.86 6.384 59.363 59.363 0 0 0-.312 5.83c.075 9.204 2.15 16.768 6.304 22.641 4.186 5.836 10.023 10.142 17.624 12.92 7.555 2.783 16.525 4.189 26.825 4.15h41.821c-.234-7.045-.472-14.096-.706-21.146h-37.592c-4.466-.036-8.263-1.133-11.396-3.209-3.093-2.114-5.366-4.936-6.817-8.462-1.447-3.525-1.955-7.475-1.525-11.826l.234-1.177h71.432a112.403 112.403 0 0 0 2.979-8.496c.784-2.702 1.372-5.093 1.723-7.245zM207.974 55.089c-5.247 0-9.715 1.056-13.316 3.095-3.642 2.076-6.541 5.129-8.771 9.123a9037.585 9037.585 0 0 0-14.766 27.844 3101.227 3101.227 0 0 0-14.607 27.844l-8.225-67.906h-11.748c-1.216-.039-2.624.078-4.268.314-1.645.232-3.291.82-4.933 1.8-1.685.981-3.135 2.546-4.429 4.699a5030.938 5030.938 0 0 1-16.289 30.586 2520.373 2520.373 0 0 1-16.841 30.741l-2.656-16.541-36.929-22.002 18.201 81.072h25.85c5.09-10.141 10.261-20.4 15.469-30.776a2818.684 2818.684 0 0 0 15.311-30.785l8.695 61.561h28.197l62.502-110.669h-16.447zm45.687 30.78c2.427-3.994 5.051-7.012 7.829-9.006 2.823-1.997 6.073-2.978 9.793-2.978h2.585c4.935 0 8.695 1.567 11.238 4.702 2.507 3.132 3.801 7.754 3.801 13.862 0 1.057-.041 2.155-.158 3.327a105.58 105.58 0 0 1-.315 3.486v1.177h-40.649v-1.177a53.51 53.51 0 0 1 2.583-7.126c1.021-2.27 2.116-4.384 3.293-6.267zm191.607 21.147c.468-2.345.781-4.699.937-6.972.156-2.268.234-4.424.234-6.421-.039-12.805-4.072-22.439-12.177-28.861-8.108-6.463-20.09-9.673-35.991-9.673h-20.444c2.116-11.986 4.231-23.967 6.348-35.95 1.056-6.228.075-10.888-2.982-13.945-3.048-3.093-8.183-4.619-15.348-4.619h-12.688c-9.636 55.06-19.27 110.123-28.901 165.183h54.511c18.486 0 33.212-4.34 44.176-12.998 10.967-8.695 17.935-21.655 20.913-38.927.469-2.274.938-4.546 1.412-6.817zm-50.756-30.778c5.638 0 9.906 1.721 12.804 5.168 2.901 3.406 4.348 8.418 4.348 15.037 0 1.646-.039 3.291-.195 5.012a66.559 66.559 0 0 1-.744 5.561c-.472 2.271-.943 4.543-1.412 6.817-1.76 10.099-5.126 17.78-10.102 22.99-4.937 5.166-11.357 7.789-19.268 7.789h-18.095c4.072-22.794 8.144-45.586 12.219-68.374h20.445z" fill="#5252DB"/><path d="M543.117 135.451c.235-1.411.43-2.705.547-3.916.123-1.255.156-2.432.156-3.604 0-4.189-.824-7.753-2.425-10.732-1.568-2.936-3.838-5.601-6.812-7.91-2.979-2.351-6.582-4.662-10.732-6.972l-14.805-8.223a15.939 15.939 0 0 0-1.763-1.252 38 38 0 0 0-1.762-1.096c-2.779-1.61-4.893-2.899-6.343-3.88-1.45-.979-2.388-1.877-2.823-2.739-.429-.901-.507-1.958-.234-3.252.435-2.429 1.724-3.991 3.921-4.778 2.153-.823 5.4-1.174 9.707-1.096h34.071l7.754-20.912h-39.003c-8.222-.039-15.351.314-21.421 1.017-6.108.745-11.24 2.114-15.39 4.072-4.19 2-7.558 4.859-10.029 8.58-2.504 3.718-4.267 8.574-5.327 14.528-.781 4.775-.703 8.85.2 12.178.899 3.33 2.349 6.111 4.346 8.382a30.442 30.442 0 0 0 6.777 5.755c2.544 1.568 5.009 2.977 7.475 4.232.396.156.943.43 1.685.822.708.391 1.333.664 1.841.82a264.557 264.557 0 0 1 8.422 5.01c2.974 1.885 5.796 3.765 8.418 5.723 2.627 1.919 4.742 3.799 6.304 5.561 1.607 1.763 2.354 3.286 2.232 4.619-.469 2.31-1.446 4.073-2.935 5.249-1.489 1.217-3.565 1.998-6.187 2.428-2.627.394-5.835.586-9.672.547h-36.191l-7.515 21.146h39.238c5.171.039 10.303-.111 15.429-.391 5.132-.312 10.03-.976 14.727-2.035a46.384 46.384 0 0 0 12.847-4.82c3.877-2.191 7.129-5.166 9.79-8.887 2.627-3.759 4.463-8.457 5.482-14.174zm129.106-27.258c.351-2.35.625-4.66.859-6.894.195-2.232.313-4.385.313-6.499 0-13.277-4.229-23.222-12.691-29.804-8.457-6.619-21.147-9.907-38.066-9.907h-17.382l6.342-35.95c1.093-6.228.117-10.888-2.9-13.945-3.012-3.093-8.144-4.619-15.429-4.619h-13.394l-28.901 165.183h34.775l15.742-89.757h14.57c5.522 0 9.868.823 13.042 2.466 3.129 1.645 5.366 3.997 6.694 7.05 1.294 3.016 1.919 6.659 1.885 10.926 0 2.702-.201 5.679-.63 8.889-.391 3.213-.86 6.618-1.485 10.143l-8.696 50.283h35.244l10.108-57.565zm60.487-34.541c1.099-6.227.195-10.886-2.661-13.942-2.896-3.093-7.954-4.621-15.195-4.621h-14.097l-19.506 110.669h35.248l16.211-92.106zm124.168 33.364c.474-2.345.781-4.699.942-6.972.157-2.268.235-4.424.235-6.421-.039-12.805-4.073-22.439-12.183-28.861-8.105-6.463-20.087-9.673-35.985-9.673h-54.516l-29.609 167.773h34.072l10.106-57.104h20.44c18.486 0 33.213-4.34 44.179-12.998 10.962-8.695 17.934-21.655 20.908-38.927l1.411-6.817zm-83.417 37.596l12.222-68.374h18.09c6.465 0 11.363 1.799 14.61 5.324 3.252 3.565 4.897 8.734 4.897 15.586 0 1.529-.039 3.094-.2 4.741a50.812 50.812 0 0 1-.742 5.127l-1.411 6.817c-1.763 10.099-4.971 17.78-9.556 22.99-4.541 5.166-10.376 7.789-17.466 7.789h-20.444z" fill="#ADB6CA"/><path d="M758.418 239l5.434-38.867c-105.599-9.326-214.031-14.185-324.581-14.185-126.409 0-250.05 6.347-369.858 18.482a1.443 1.443 0 0 0 .161 2.748c-2.336.074 364.385-22.705 688.844 31.822" fill="#ADB6CA"/><path d="M743.052 22.662c1.054-6.342.351-11.003-2.193-14.06-2.548-3.017-6.972-4.541-13.315-4.504-6.582-.037-11.792 1.487-15.669 4.504-3.838 3.057-6.304 7.718-7.363 14.06-1.172 6.346-.352 11.043 2.431 14.139 2.74 3.131 7.442 4.657 14.019 4.657 6.343 0 11.318-1.526 14.922-4.657 3.642-3.096 6.03-7.793 7.168-14.139" fill="#5252DB"/><path d="M0 54.993L87.768 110.5l-7.273-43.276c-.623-3.413-1.643-5.996-3.055-7.76-1.45-1.763-3.371-2.982-5.803-3.609-2.429-.625-5.407-.901-9.013-.862H0M883.422 36.477c0-1.36-.469-2.32-1.406-2.836-.47-.258-1.125-.422-2.743-.422h-2.882v6.586h3.797c2.062 0 3.234-1.22 3.234-3.328zm1.219 6.68l4.804 8.741a.73.73 0 0 1-.023.727.711.711 0 0 1-.633.375h-3.562c-.282 0-.54-.14-.657-.398l-4.547-8.555h-3.632v8.203a.74.74 0 0 1-.75.75H872.5a.74.74 0 0 1-.75-.75v-22.5a.74.74 0 0 1 .75-.75h6.89c2.462 0 3.54.21 4.454.563 2.648.984 4.289 3.585 4.289 6.773 0 2.883-1.43 5.32-3.703 6.445.07.117.14.235.21.375zM880 23.75c-9.516 0-17.25 7.734-17.25 17.25s7.734 17.25 17.25 17.25 17.25-7.734 17.25-17.25-7.734-17.25-17.25-17.25zM901 41c0 11.602-9.398 21-21 21s-21-9.398-21-21 9.398-21 21-21 21 9.398 21 21z" fill="#ADB6CA"/></g></svg>